<?xml version="1.0" encoding="utf-8"?>
<!-- Generator: Adobe Illustrator 19.1.0, SVG Export Plug-In . SVG Version: 6.00 Build 0)  -->
<svg version="1.1" id="Layer_1" xmlns="http://www.w3.org/2000/svg" xmlns:xlink="http://www.w3.org/1999/xlink" x="0px" y="0px"
	 viewBox="-152 -11 150 88" style="enable-background:new -152 -11 150 88;" xml:space="preserve">
<style type="text/css">
	.st0{fill:#FFFFFF;}
	.st1{fill:#1A237B;}
	.st2{fill:#BD0034;}
</style>
<rect x="-152" y="-11" class="st0" width="150" height="88"/>
<path class="st1" d="M-12.3-11h-52.5v29.5L-12.3-11z M-88-11h-52.3L-88,18.5V-11z M-2,20.8V0.6l-35.6,20.2H-2z M-2,67V47h-35.6
	L-2,67z M-137.3,77H-88V49.2L-137.3,77z M-64.8,77h49.5l-49.5-27.8V77z M-152,47v20.9l36.9-20.9H-152z M-152,20.8h36.9l-36.9-21
	V20.8z"/>
<path class="st2" d="M-51.6,20.8L-2-7.1V-11h-3.4l-56.5,31.8H-51.6z M-53.9,47L-2,76.2v-6L-43.5,47H-53.9z M-152-4.2l44.4,25.1h10.4
	l-54.8-31V-4.2z M-99.6,47L-152,76.5V77h9.5l53.3-30H-99.6z M-83.3-11v37H-152v15.7h68.7V77h13.9V41.7H-2V26h-67.4v-37H-83.3z"/>
</svg>
