<?xml version="1.0" encoding="utf-8"?>
<!-- Generator: Adobe Illustrator 19.1.0, SVG Export Plug-In . SVG Version: 6.00 Build 0)  -->
<svg version="1.1" id="Layer_1" xmlns="http://www.w3.org/2000/svg" xmlns:xlink="http://www.w3.org/1999/xlink" x="0px" y="0px"
	 viewBox="0 0.7 150 88" style="enable-background:new 0 0.7 150 88;" xml:space="preserve">
<style type="text/css">
	.st0{clip-path:url(#SVGID_2_);fill:#FFFFFF;}
	.st1{clip-path:url(#SVGID_4_);}
	.st2{clip-path:url(#SVGID_6_);}
	.st3{clip-path:url(#SVGID_8_);}
	.st4{clip-path:url(#SVGID_10_);}
	.st5{clip-path:url(#SVGID_12_);}
	.st6{clip-path:url(#SVGID_14_);}
	.st7{clip-path:url(#SVGID_16_);}
	.st8{clip-path:url(#SVGID_18_);}
	.st9{clip-path:url(#SVGID_20_);}
	.st10{clip-path:url(#SVGID_22_);}
	.st11{clip-path:url(#SVGID_24_);}
	.st12{clip-path:url(#SVGID_26_);}
	.st13{clip-path:url(#SVGID_28_);}
	.st14{clip-path:url(#SVGID_30_);}
	.st15{clip-path:url(#SVGID_32_);}
	.st16{clip-path:url(#SVGID_34_);}
	.st17{clip-path:url(#SVGID_36_);}
	.st18{clip-path:url(#SVGID_38_);}
	.st19{clip-path:url(#SVGID_40_);}
	.st20{clip-path:url(#SVGID_44_);}
	.st21{clip-path:url(#SVGID_45_);}
	.st22{clip-path:url(#SVGID_46_);fill:#B50037;}
	.st23{clip-path:url(#SVGID_46_);fill:#1E3476;}
</style>
<g>
	<g>
		<defs>
			<rect id="SVGID_1_" x="0" y="1" width="150" height="87.5"/>
		</defs>
		<clipPath id="SVGID_2_">
			<use xlink:href="#SVGID_1_"  style="overflow:visible;"/>
		</clipPath>
		<rect x="0" y="1" class="st0" width="150" height="87.5"/>
	</g>
	<g>
		<defs>
			
				<rect id="SVGID_3_" x="59.8" y="-15.3" transform="matrix(0.5546 0.8321 -0.8321 0.5546 83.7151 -99.4763)" width="150" height="87.5"/>
		</defs>
		<clipPath id="SVGID_4_">
			<use xlink:href="#SVGID_3_"  style="overflow:visible;"/>
		</clipPath>
		<rect x="95.5" y="18.8" transform="matrix(0.5546 0.8321 -0.8321 0.5546 61.9548 -74.472)" class="st1" width="10" height="3.6"/>
	</g>
	<g>
		<defs>
			
				<rect id="SVGID_5_" x="61.8" y="5.5" transform="matrix(0.5547 0.8321 -0.8321 0.5547 101.8968 -91.8875)" width="150" height="87.5"/>
		</defs>
		<clipPath id="SVGID_6_">
			<use xlink:href="#SVGID_5_"  style="overflow:visible;"/>
		</clipPath>
		<rect x="102" y="28.7" transform="matrix(0.5547 0.8321 -0.8321 0.5547 73.0484 -75.4865)" class="st2" width="10" height="3.6"/>
	</g>
	<g>
		<defs>
			
				<rect id="SVGID_7_" x="70.4" y="-5.8" transform="matrix(0.5546 0.8321 -0.8321 0.5546 96.3179 -104.0773)" width="150" height="87.5"/>
		</defs>
		<clipPath id="SVGID_8_">
			<use xlink:href="#SVGID_7_"  style="overflow:visible;"/>
		</clipPath>
		
			<rect x="97.4" y="20.7" transform="matrix(0.5546 0.8321 -0.8321 0.5546 67.0105 -80.1445)" class="st3" width="21.9" height="3.6"/>
	</g>
	<g>
		<defs>
			<rect id="SVGID_9_" x="0" y="1" width="150" height="87.5"/>
		</defs>
		<clipPath id="SVGID_10_">
			<use xlink:href="#SVGID_9_"  style="overflow:visible;"/>
		</clipPath>
		<polygon class="st4" points="108.4,9.4 113.9,17.7 110.9,19.7 105.3,11.4 		"/>
	</g>
	<g>
		<defs>
			
				<rect id="SVGID_11_" x="81" y="3.6" transform="matrix(0.5547 0.8321 -0.8321 0.5547 108.8999 -108.6869)" width="150" height="87.5"/>
		</defs>
		<clipPath id="SVGID_12_">
			<use xlink:href="#SVGID_11_"  style="overflow:visible;"/>
		</clipPath>
		
			<rect x="111.2" y="22.6" transform="matrix(0.5547 0.8321 -0.8321 0.5547 72.0491 -85.8216)" class="st5" width="10" height="3.6"/>
	</g>
	<g>
		<defs>
			
				<rect id="SVGID_13_" x="-60.8" y="6.9" transform="matrix(0.5547 0.8321 -0.8321 0.5547 48.4576 10.7247)" width="150" height="87.5"/>
		</defs>
		<clipPath id="SVGID_14_">
			<use xlink:href="#SVGID_13_"  style="overflow:visible;"/>
		</clipPath>
		
			<rect x="35.2" y="62.2" transform="matrix(0.5547 0.8321 -0.8321 0.5547 73.8163 -9.8896)" class="st6" width="21.9" height="3.6"/>
	</g>
	<g>
		<defs>
			<rect id="SVGID_15_" x="0" y="1" width="150" height="87.5"/>
		</defs>
		<clipPath id="SVGID_16_">
			<use xlink:href="#SVGID_15_"  style="overflow:visible;"/>
		</clipPath>
		<polygon class="st7" points="37.1,56.9 42.6,65.2 39.6,67.2 34,58.9 		"/>
	</g>
	<g>
		<defs>
			
				<rect id="SVGID_17_" x="-69.4" y="18.2" transform="matrix(0.5546 0.8321 -0.8321 0.5546 54.0666 22.9172)" width="150" height="87.5"/>
		</defs>
		<clipPath id="SVGID_18_">
			<use xlink:href="#SVGID_17_"  style="overflow:visible;"/>
		</clipPath>
		<rect x="39.9" y="70.2" transform="matrix(0.5546 0.8321 -0.8321 0.5546 79.8756 -5.3234)" class="st8" width="10" height="3.6"/>
	</g>
	<g>
		<defs>
			
				<rect id="SVGID_19_" x="-80" y="8.7" transform="matrix(0.5547 0.8321 -0.8321 0.5547 41.4546 27.5244)" width="150" height="87.5"/>
		</defs>
		<clipPath id="SVGID_20_">
			<use xlink:href="#SVGID_19_"  style="overflow:visible;"/>
		</clipPath>
		
			<rect x="26.1" y="68.3" transform="matrix(0.5547 0.8321 -0.8321 0.5547 74.8066 0.3518)" class="st9" width="21.9" height="3.6"/>
	</g>
	<g>
		<defs>
			<rect id="SVGID_21_" x="0" y="1" width="150" height="87.5"/>
		</defs>
		<clipPath id="SVGID_22_">
			<use xlink:href="#SVGID_21_"  style="overflow:visible;"/>
		</clipPath>
		<polygon class="st10" points="38.6,33.6 50.7,15.4 53.8,17.4 41.6,35.6 		"/>
	</g>
	<g>
		<defs>
			
				<rect id="SVGID_23_" x="-70.4" y="-5.8" transform="matrix(0.5547 -0.8321 0.8321 0.5547 -29.5093 20.7287)" width="150" height="87.5"/>
		</defs>
		<clipPath id="SVGID_24_">
			<use xlink:href="#SVGID_23_"  style="overflow:visible;"/>
		</clipPath>
		
			<rect x="30.7" y="20.7" transform="matrix(0.5547 -0.8321 0.8321 0.5547 -0.2055 44.6646)" class="st11" width="21.9" height="3.6"/>
	</g>
	<g>
		<defs>
			<rect id="SVGID_25_" x="0" y="1" width="150" height="87.5"/>
		</defs>
		<clipPath id="SVGID_26_">
			<use xlink:href="#SVGID_25_"  style="overflow:visible;"/>
		</clipPath>
		<polygon class="st12" points="29.5,27.6 41.6,9.4 44.7,11.4 32.5,29.6 		"/>
	</g>
	<g>
		<defs>
			
				<rect id="SVGID_27_" x="59.8" y="17.3" transform="matrix(0.5546 -0.8321 0.8321 0.5546 9.2397 139.3388)" width="150" height="87.5"/>
		</defs>
		<clipPath id="SVGID_28_">
			<use xlink:href="#SVGID_27_"  style="overflow:visible;"/>
		</clipPath>
		
			<rect x="95.5" y="67.1" transform="matrix(0.5546 -0.8321 0.8321 0.5546 -12.5207 114.3345)" class="st13" width="10" height="3.6"/>
	</g>
	<g>
		<defs>
			
				<rect id="SVGID_29_" x="61.8" y="-3.5" transform="matrix(0.5547 -0.8321 0.8321 0.5547 27.4339 131.7363)" width="150" height="87.5"/>
		</defs>
		<clipPath id="SVGID_30_">
			<use xlink:href="#SVGID_29_"  style="overflow:visible;"/>
		</clipPath>
		
			<rect x="102.1" y="57.2" transform="matrix(0.5547 -0.8321 0.8321 0.5547 -1.4236 115.4292)" class="st14" width="10" height="3.6"/>
	</g>
	<g>
		<defs>
			
				<rect id="SVGID_31_" x="69.4" y="18.2" transform="matrix(0.5546 -0.8321 0.8321 0.5546 12.7436 147.7401)" width="150" height="87.5"/>
		</defs>
		<clipPath id="SVGID_32_">
			<use xlink:href="#SVGID_31_"  style="overflow:visible;"/>
		</clipPath>
		
			<rect x="100.1" y="70.2" transform="matrix(0.5546 -0.8321 0.8321 0.5546 -13.0654 119.4995)" class="st15" width="10" height="3.6"/>
	</g>
	<g>
		<defs>
			<rect id="SVGID_33_" x="0" y="1" width="150" height="87.5"/>
		</defs>
		<clipPath id="SVGID_34_">
			<use xlink:href="#SVGID_33_"  style="overflow:visible;"/>
		</clipPath>
		<polygon class="st16" points="107.4,65.2 112.9,56.9 115.9,58.9 110.4,67.2 		"/>
	</g>
	<g>
		<defs>
			
				<rect id="SVGID_35_" x="79" y="19.2" transform="matrix(0.5549 -0.8319 0.8319 0.5549 16.2054 156.0926)" width="150" height="87.5"/>
		</defs>
		<clipPath id="SVGID_36_">
			<use xlink:href="#SVGID_35_"  style="overflow:visible;"/>
		</clipPath>
		
			<rect x="104.7" y="73.2" transform="matrix(0.5549 -0.8319 0.8319 0.5549 -13.5313 124.6193)" class="st17" width="10" height="3.6"/>
	</g>
	<g>
		<defs>
			
				<rect id="SVGID_37_" x="81" y="-1.7" transform="matrix(0.5547 -0.8321 0.8321 0.5547 34.437 148.5357)" width="150" height="87.5"/>
		</defs>
		<clipPath id="SVGID_38_">
			<use xlink:href="#SVGID_37_"  style="overflow:visible;"/>
		</clipPath>
		
			<rect x="111.2" y="63.3" transform="matrix(0.5547 -0.8321 0.8321 0.5547 -2.4138 125.6703)" class="st18" width="10" height="3.6"/>
	</g>
	<g>
		<defs>
			<rect id="SVGID_39_" x="0" y="1" width="150" height="87.5"/>
		</defs>
		<clipPath id="SVGID_40_">
			<use xlink:href="#SVGID_39_"  style="overflow:visible;"/>
		</clipPath>
		<g class="st19">
			<g>
				<defs>
					<rect id="SVGID_41_" x="0" y="1" width="150" height="87.5"/>
				</defs>
				<defs>
					<rect id="SVGID_42_" x="0" y="1" width="150" height="87.5"/>
				</defs>
				<defs>
					<rect id="SVGID_43_" x="0" y="1" width="150" height="87.5"/>
				</defs>
				<clipPath id="SVGID_44_">
					<use xlink:href="#SVGID_41_"  style="overflow:visible;"/>
				</clipPath>
				<clipPath id="SVGID_45_" class="st20">
					<use xlink:href="#SVGID_42_"  style="overflow:visible;"/>
				</clipPath>
				<clipPath id="SVGID_46_" class="st21">
					<use xlink:href="#SVGID_43_"  style="overflow:visible;"/>
				</clipPath>
				<path class="st22" d="M56.8,32.6c-0.1,0.1-0.2,0.2-0.2,0.4C56.6,32.9,56.7,32.7,56.8,32.6"/>
				<path class="st22" d="M87.1,26.5c-10.1-6.7-23.6-4-30.3,6.1c-3.4,5-2,11.8,3,15.2s11.8,2,15.2-3c3.3-5,10.1-6.4,15.2-3
					c5,3.4,6.4,10.1,3,15.2C99.9,46.8,97.2,33.3,87.1,26.5"/>
				<path class="st23" d="M56.8,32.6c-3.4,5-2,11.8,3,15.2s11.8,2,15.2-3c3.3-5,10.1-6.4,15.2-3c5,3.4,6.4,10.1,3,15.2
					c-6.7,10-20.3,12.8-30.3,6.1C52.8,56.3,50.1,42.7,56.8,32.6"/>
			</g>
		</g>
	</g>
</g>
</svg>
