<?xml version="1.0" encoding="utf-8"?>
<!-- Generator: Adobe Illustrator 19.1.0, SVG Export Plug-In . SVG Version: 6.00 Build 0)  -->
<svg version="1.1" id="Layer_1" xmlns="http://www.w3.org/2000/svg" xmlns:xlink="http://www.w3.org/1999/xlink" x="0px" y="0px"
	 viewBox="-152 -11 150 88" style="enable-background:new -152 -11 150 88;" xml:space="preserve">
<style type="text/css">
	.st0{fill:#CB1D23;}
	.st1{fill:#F7DE29;}
</style>
<rect x="-152" y="-11" class="st0" width="150" height="88"/>
<path class="st1" d="M-137.6,20.9l2.9-8.8l-7.5-5.4h9.2l2.9-8.7l2.8,8.7h9.2l-7.4,5.4l2.8,8.8l-7.4-5.4L-137.6,20.9z M-112,25.6
	l3.1,1.2l2.2-2.5l-0.3,3.3l3.1,1.3l-3.2,0.8l-0.3,3.3l-1.7-2.8l-3.3,0.8l2.2-2.6L-112,25.6z M-95.2,8.8l-3.3-0.6l-1.6,3l-0.5-3.3
	l-3.2-0.6l3-1.5l-0.5-3.3l2.3,2.4l3-1.4l-1.5,2.9L-95.2,8.8z M-102.2,23.8l1-3.2l-2.7-2h3.4l1-3.2l1,3.2h3.4l-2.7,2l1,3.2l-2.7-2
	L-102.2,23.8z M-111.8-5.2l3,1.4l2.3-2.5l-0.4,3.3l3,1.5l-3.3,0.6l-0.4,3.3l-1.6-2.9l-3.3,0.6l2.3-2.4L-111.8-5.2z"/>
</svg>
